<?xml version="1.0" encoding="UTF-8" standalone="no"?>
<!-- Created with Inkscape (http://www.inkscape.org/) -->

<svg
   width="99.774437mm"
   height="17.529114mm"
   viewBox="0 0 99.774437 17.529114"
   version="1.1"
   id="svg5"
   xml:space="preserve"
   inkscape:version="1.2.2 (b0a8486541, 2022-12-01)"
   sodipodi:docname="Subspace Systems.svg"
   xmlns:inkscape="http://www.inkscape.org/namespaces/inkscape"
   xmlns:sodipodi="http://sodipodi.sourceforge.net/DTD/sodipodi-0.dtd"
   xmlns="http://www.w3.org/2000/svg"
   xmlns:svg="http://www.w3.org/2000/svg"><sodipodi:namedview
     id="namedview7"
     pagecolor="#ffffff"
     bordercolor="#000000"
     borderopacity="0.25"
     inkscape:showpageshadow="2"
     inkscape:pageopacity="0.0"
     inkscape:pagecheckerboard="0"
     inkscape:deskcolor="#d1d1d1"
     inkscape:document-units="mm"
     showgrid="false"
     inkscape:zoom="1.3544705"
     inkscape:cx="414.18399"
     inkscape:cy="573.6559"
     inkscape:window-width="2206"
     inkscape:window-height="1435"
     inkscape:window-x="50"
     inkscape:window-y="32"
     inkscape:window-maximized="1"
     inkscape:current-layer="svg5" /><defs
     id="defs2" /><g
     inkscape:label="Layer 1"
     inkscape:groupmode="layer"
     id="layer1"
     style="display:none"
     transform="translate(-84.116556,-82.654935)"><rect
       style="fill:#1c1f26;fill-opacity:1;stroke:none;stroke-width:0.731406;stroke-dasharray:none;stroke-opacity:1"
       id="rect37116"
       width="100.05066"
       height="87.135857"
       x="7.857265"
       y="12.602798" /><text
       xml:space="preserve"
       style="font-style:normal;font-variant:normal;font-weight:bold;font-stretch:normal;font-size:5.39083px;font-family:'Eurostile Extended';-inkscape-font-specification:'Eurostile Extended Bold';text-align:center;letter-spacing:1.83135px;text-anchor:middle;fill:#0a1a2f;fill-opacity:1;stroke:none;stroke-width:0.749198;stroke-dasharray:none;stroke-opacity:1"
       x="162.06326"
       y="88.35463"
       id="text38367-8"
       transform="scale(0.99024314,1.009853)"><tspan
         sodipodi:role="line"
         id="tspan38365-5"
         style="fill:#0a1a2f;fill-opacity:1;stroke-width:0.749198"
         x="162.97894"
         y="88.35463">SYSTEMS</tspan></text></g><g
     id="g61654-0-2-8"
     transform="matrix(-0.31314752,0.21462858,-0.21462858,-0.31314752,79.880724,82.238725)"
     inkscape:export-filename="../../../Subspace/Branding/Logo HD Wide.svg"
     inkscape:export-xdpi="300"
     inkscape:export-ydpi="300"><g
       id="g1966-6-45-2-0"
       transform="matrix(0.38128604,0,0,0.38128604,6.9166314,162.06627)"
       style="fill:#26a69a;fill-opacity:1"><g
         id="path403-4-42-9-2"
         transform="matrix(0.93570483,0,0,0.93570483,-53.773849,16.479198)"
         style="fill:#26a69a;fill-opacity:1"><path
           id="path61726-4-2-4"
           style="color:#000000;fill:#26a69a;fill-opacity:1;stroke-width:1.765;-inkscape-stroke:none"
           d="m 129.90061,268.67936 c -2.57818,5e-5 -4.68713,2.109 -4.68718,4.68717 5e-5,2.57817 2.109,4.68857 4.68718,4.68863 2.57817,-6e-5 4.68712,-2.11046 4.68717,-4.68863 -5e-5,-2.57817 -2.109,-4.68712 -4.68717,-4.68717 z" /></g><path
         id="path403-6-0-9-8-9"
         style="color:#000000;fill:#26a69a;fill-opacity:1;stroke:none;-inkscape-stroke:none"
         d="m 151.22731,229.07606 c -2.30174,5e-5 -4.17559,1.8738 -4.17564,4.17565 3e-5,1.31047 0.60778,2.48214 1.55568,3.24828 l -17.66523,32.82305 c -0.33325,-0.086 -0.68193,-0.13187 -1.0416,-0.13188 -2.06108,4e-5 -3.77411,1.50415 -4.11096,3.47089 H 95.881313 c -0.336374,-1.96736 -2.054505,-3.47085 -4.116006,-3.47089 -2.301836,4e-5 -4.175596,1.87379 -4.175646,4.17565 5e-5,2.30185 1.87381,4.17643 4.175646,4.17648 2.0606,-4e-5 3.777732,-1.50228 4.115166,-3.46836 h 29.909087 c 0.33819,1.96526 2.05103,3.46832 4.11096,3.46836 0.36919,0 0.72667,-0.0505 1.06764,-0.14112 l 17.67951,32.84993 c -0.94809,0.76625 -1.55565,1.93767 -1.55568,3.24829 5e-5,2.30184 1.8738,4.17559 4.17564,4.17564 2.30186,-5e-5 4.1756,-1.8738 4.17565,-4.17564 -5e-5,-2.30186 -1.87379,-4.17561 -4.17565,-4.17565 -0.48608,10e-6 -0.95254,0.0842 -1.38684,0.23772 l -17.62658,-32.75333 c 0.91023,-0.6264 1.56251,-1.60243 1.75728,-2.7342 h 37.55477 c 0.33742,1.9661 2.05455,3.46832 4.11517,3.46836 0.32883,0 0.64707,-0.0419 0.95424,-0.11424 l 2.45364,4.97113 c -1.07002,0.757 -1.77069,2.00342 -1.77072,3.41041 5e-5,2.30183 1.8738,4.17559 4.17565,4.17564 2.30184,-5e-5 4.17643,-1.87381 4.17648,-4.17564 -5e-5,-2.30186 -1.87464,-4.17561 -4.17648,-4.17565 -0.39139,1e-5 -0.77027,0.0542 -1.1298,0.1554 l -2.42677,-4.91485 c 1.15296,-0.74439 1.92021,-2.03802 1.92024,-3.50868 -3e-5,-1.48079 -0.77836,-2.78136 -1.9446,-3.52297 l 2.40997,-4.88208 c 0.35982,0.10142 0.7389,0.15623 1.13064,0.15624 2.30182,-4e-5 4.17559,-1.87379 4.17564,-4.17565 -5e-5,-2.30185 -1.87382,-4.1756 -4.17564,-4.17565 -2.30185,5e-5 -4.1756,1.8738 -4.17565,4.17565 3e-5,1.40682 0.70092,2.65254 1.77072,3.40957 l -2.44188,4.94592 c -0.29833,-0.0679 -0.60715,-0.10667 -0.92568,-0.10668 -2.06147,4e-5 -3.77875,1.50358 -4.11517,3.47089 h -37.55729 c -0.19591,-1.14267 -0.85098,-2.13058 -1.77576,-2.75605 l 17.60726,-32.71636 c 0.4343,0.15351 0.90075,0.23771 1.38684,0.23772 2.30185,-4e-5 4.1756,-1.87379 4.17565,-4.17565 -5e-5,-2.30185 -1.8738,-4.1756 -4.17565,-4.17565 z m 0,0.74256 c 1.90064,4e-5 3.4339,1.53244 3.43393,3.43309 -3e-5,1.90065 -1.53329,3.43388 -3.43393,3.43392 -1.90054,-4e-5 -3.43388,-1.53327 -3.43392,-3.43392 4e-5,-1.90065 1.53338,-3.43305 3.43392,-3.43309 z m 30.22661,27.68981 c 1.90065,4e-5 3.43389,1.53327 3.43392,3.43392 -3e-5,1.90065 -1.53327,3.43305 -3.43392,3.43309 -1.90065,-4e-5 -3.43305,-1.53244 -3.43309,-3.43309 4e-5,-1.90065 1.53244,-3.43388 3.43309,-3.43392 z m -89.688613,12.42529 c 1.900636,4e-5 3.433895,1.53244 3.433925,3.43309 -3e-5,1.90065 -1.533289,3.43388 -3.433925,3.43392 -1.900636,-4e-5 -3.433045,-1.53327 -3.433085,-3.43392 4e-5,-1.90065 1.532449,-3.43305 3.433085,-3.43309 z m 38.135213,0 c 1.90065,4e-5 3.43306,1.53244 3.43309,3.43309 -3e-5,1.90065 -1.53244,3.43388 -3.43309,3.43392 -1.90065,-4e-5 -3.43388,-1.53327 -3.43392,-3.43392 4e-5,-1.90065 1.53327,-3.43305 3.43392,-3.43309 z m 45.78091,0 c 1.90065,4e-5 3.43389,1.53244 3.43392,3.43309 -3e-5,1.90065 -1.53327,3.43388 -3.43392,3.43392 -1.90065,-4e-5 -3.43305,-1.53327 -3.43309,-3.43392 4e-5,-1.90065 1.53244,-3.43305 3.43309,-3.43309 z m 5.81281,12.44294 c 1.90065,4e-5 3.43389,1.53328 3.43392,3.43393 -3e-5,1.90063 -1.53327,3.43304 -3.43392,3.43308 -1.90065,-4e-5 -3.43305,-1.53245 -3.43309,-3.43308 4e-5,-1.90065 1.53244,-3.43389 3.43309,-3.43393 z m -30.22661,27.69064 c 1.90065,4e-5 3.4339,1.53244 3.43393,3.43309 -3e-5,1.90064 -1.53328,3.43388 -3.43393,3.43392 -1.90064,-4e-5 -3.43304,-1.53328 -3.43308,-3.43392 4e-5,-1.90065 1.53244,-3.43305 3.43308,-3.43309 z"
         transform="matrix(1.613473,0,0,1.613473,-141.81621,-168.80038)" /></g><g
       id="g1966-6-9-9-1-0"
       transform="matrix(0.38128604,0,0,0.38128604,-16.543807,162.06627)"
       style="fill:#26a69a;fill-opacity:1"><g
         id="path403-4-4-9-2-1"
         transform="matrix(0.93570483,0,0,0.93570483,-53.773849,16.479198)"
         style="fill:#26a69a;fill-opacity:1"><path
           id="path61736-4-4-2"
           style="color:#000000;fill:#26a69a;fill-opacity:1;stroke-width:1.765;-inkscape-stroke:none"
           d="m 129.9002,268.67936 c -2.57818,5e-5 -4.68713,2.109 -4.68718,4.68717 5e-5,2.57817 2.109,4.68857 4.68718,4.68863 2.57818,-6e-5 4.68713,-2.11046 4.68718,-4.68863 -5e-5,-2.57817 -2.109,-4.68712 -4.68718,-4.68717 z" /></g></g><g
       id="g1966-6-4-9-7-0"
       transform="matrix(0.38128604,0,0,0.38128604,35.081115,162.06627)"
       style="fill:#26a69a;fill-opacity:1"><g
         id="path403-4-6-8-8-0"
         transform="matrix(0.93570483,0,0,0.93570483,-53.773849,16.479198)"
         style="fill:#26a69a;fill-opacity:1"><path
           id="path61746-1-6-6"
           style="color:#000000;fill:#26a69a;fill-opacity:1;stroke-width:1.765;-inkscape-stroke:none"
           d="m 129.89973,268.67936 c -2.57817,5e-5 -4.68712,2.109 -4.68717,4.68717 5e-5,2.57817 2.109,4.68857 4.68717,4.68863 2.57818,-6e-5 4.68858,-2.11046 4.68863,-4.68863 -5e-5,-2.57817 -2.11045,-4.68712 -4.68863,-4.68717 z" /></g></g><g
       id="g1966-6-3-6-3-3"
       transform="matrix(0.38128604,0,0,0.38128604,38.657149,169.72124)"
       style="fill:#26a69a;fill-opacity:1"><g
         id="path403-4-9-3-7-9"
         transform="matrix(0.93570483,0,0,0.93570483,-53.773849,16.479198)"
         style="fill:#26a69a;fill-opacity:1"><path
           id="path61756-9-7-0"
           style="color:#000000;fill:#26a69a;fill-opacity:1;stroke-width:1.765;-inkscape-stroke:none"
           d="m 129.90111,268.68041 c -2.57817,5e-5 -4.68857,2.109 -4.68862,4.68718 5e-5,2.57817 2.11045,4.68712 4.68862,4.68718 2.57818,-6e-5 4.68713,-2.10901 4.68718,-4.68718 -5e-5,-2.57818 -2.109,-4.68713 -4.68718,-4.68718 z" /></g></g><g
       id="g1966-6-5-3-2-8"
       transform="matrix(0.38128604,0,0,0.38128604,20.061774,186.75616)"
       style="fill:#26a69a;fill-opacity:1"><g
         id="path403-4-2-3-3-3"
         transform="matrix(0.93570483,0,0,0.93570483,-53.773849,16.479198)"
         style="fill:#26a69a;fill-opacity:1"><path
           id="path61766-4-7-8"
           style="color:#000000;fill:#26a69a;fill-opacity:1;stroke-width:1.765;-inkscape-stroke:none"
           d="m 129.90002,268.67957 c -2.57818,5e-5 -4.68712,2.109 -4.68717,4.68718 5e-5,2.57816 2.10899,4.68856 4.68717,4.68862 2.57818,-6e-5 4.68713,-2.11046 4.68718,-4.68862 -5e-5,-2.57818 -2.109,-4.68713 -4.68718,-4.68718 z" /></g></g><g
       id="g1966-6-3-3-6-2-7"
       transform="matrix(0.38128604,0,0,-0.38128604,38.632263,362.04814)"
       style="fill:#26a69a;fill-opacity:1"><g
         id="path403-4-9-8-1-5-3"
         transform="matrix(0.93570483,0,0,0.93570483,-53.773849,16.479198)"
         style="fill:#26a69a;fill-opacity:1"><path
           id="path61792-5-3-1"
           style="color:#000000;fill:#26a69a;fill-opacity:1;stroke-width:1.765;-inkscape-stroke:none"
           d="m 129.89989,278.05412 c -2.57818,-6e-5 -4.68712,-2.109 -4.68717,-4.68717 5e-5,-2.57818 2.10899,-4.68713 4.68717,-4.68718 2.57818,5e-5 4.68858,2.109 4.68863,4.68718 -5e-5,2.57817 -2.11045,4.68711 -4.68863,4.68717 z" /></g></g><g
       id="g1966-6-5-5-6-7-0"
       transform="matrix(0.38128604,0,0,-0.38128604,20.036888,345.01322)"
       style="fill:#26a69a;fill-opacity:1"><g
         id="path403-4-2-5-1-6-0"
         transform="matrix(0.93570483,0,0,0.93570483,-53.773849,16.479198)"
         style="fill:#26a69a;fill-opacity:1"><path
           id="path61802-7-8-5"
           style="color:#000000;fill:#26a69a;fill-opacity:1;stroke-width:1.765;-inkscape-stroke:none"
           d="m 129.90025,278.05473 c -2.57818,-6e-5 -4.68713,-2.10901 -4.68718,-4.68718 5e-5,-2.57816 2.109,-4.68712 4.68718,-4.68717 2.57818,5e-5 4.68713,2.10901 4.68718,4.68717 -5e-5,2.57817 -2.109,4.68712 -4.68718,4.68718 z" /></g></g></g><g
     id="g8497-8-1-3-1-0"
     transform="translate(-1.7490312,-97.501952)"
     style="display:inline;fill:#eceff4;fill-opacity:1"><g
       aria-label="SUBSPACE"
       transform="scale(0.8966683,1.1152396)"
       id="text37485-6-6-6-3-3"
       style="font-size:10.9969px;font-family:Mallanna;-inkscape-font-specification:Mallanna;text-align:center;letter-spacing:-0.15875px;text-anchor:middle;fill:#eceff4;fill-opacity:1;stroke-width:1.52831"><path
         d="m 31.535693,93.982217 q 0,0.450873 0.296916,0.571838 0.307914,0.109969 0.846762,0.109969 l 1.055702,0.011 1.495578,-0.04399 q 0.615827,0 0.802774,-0.153957 0.186947,-0.153956 0.186947,-0.483863 0,-0.296917 -0.219938,-0.472867 -0.208941,-0.175951 -0.81377,-0.175951 h -0.362898 l -3.672964,-0.07698 q -1.033709,0 -1.462588,-0.516854 -0.417882,-0.527851 -0.417882,-1.605547 0,-0.912743 0.263925,-1.4186 0.274923,-0.505858 0.978725,-0.681808 0.714798,-0.186948 1.858476,-0.219938 1.154674,-0.03299 1.550562,-0.03299 l 1.56156,0.02199 q 0.934737,0 1.506575,0.153956 0.571839,0.14296 0.802774,0.538849 0.241932,0.395888 0.307913,0.714798 0.06598,0.31891 0.06598,0.879752 h -2.188383 q 0,-0.384892 -0.230935,-0.538848 -0.219938,-0.153957 -0.626824,-0.153957 l -1.077696,-0.011 -1.704519,0.05499 q -0.340904,0 -0.582836,0.131963 -0.230935,0.120966 -0.230935,0.417882 0,0.406885 0.274923,0.538848 0.285919,0.120966 0.769783,0.120966 h 0.230935 l 1.495578,0.02199 1.473585,0.011 q 1.4186,0 2.05642,0.450872 0.648817,0.439876 0.648817,1.781498 0,1.297634 -0.582836,1.781498 -0.571839,0.483863 -1.902463,0.483863 l -2.859194,0.07698 -1.495579,-0.03299 q -1.187665,0 -1.748507,-0.384891 -0.560842,-0.384892 -0.560842,-1.550563 v -0.439876 h 2.19938 z"
         style="-inkscape-font-specification:'Eurostile Extended Bold';fill:#eceff4;fill-opacity:1"
         id="path40649-7-3-1-6-1" /><path
         d="m 49.488835,93.058477 v 0.428879 q 0,1.715517 -0.901746,2.265362 -0.890749,0.538848 -2.760222,0.538848 l -1.825485,-0.011 q -1.451591,0 -2.221374,-0.153957 -0.769783,-0.153956 -1.242649,-0.78078 -0.472867,-0.626823 -0.472867,-1.968445 v -4.497732 h 2.23237 v 3.837918 q 0,1.09969 0.263926,1.429597 0.263926,0.329907 1.330625,0.329907 l 1.000718,0.011 0.923739,-0.011 q 0.912743,0 1.165672,-0.285919 0.263925,-0.28592 0.263925,-1.154675 v -0.274922 -3.881906 h 2.243368 z"
         style="-inkscape-font-specification:'Eurostile Extended Bold';fill:#eceff4;fill-opacity:1"
         id="path40651-0-0-8-4-8" /><path
         id="path40653-4-2-7-0-0"
         style="-inkscape-font-specification:'Eurostile Extended Bold';fill:#eceff4;fill-opacity:1"
         d="m 51.243717,88.868538 v 1.608807 l 2.232072,-0.0016 3.893015,-0.0016 c 0.278588,0 0.487738,0.04029 0.627032,0.120938 0.146625,0.08064 0.219576,0.245612 0.219576,0.494875 0,0.278588 -0.07657,0.458251 -0.230526,0.538895 -0.146626,0.08064 -0.366632,0.120939 -0.659882,0.120939 l -3.849215,-0.0074 -2.232072,-0.0074 v 4.468704 h 7.070821 c 0.843096,0 1.459113,-0.146484 1.84767,-0.439735 0.395888,-0.300581 0.593605,-0.858055 0.593605,-1.671825 0,-0.579169 -0.113334,-0.971211 -0.340603,-1.176487 -0.227269,-0.205275 -0.638331,-0.355549 -1.232163,-0.450855 0.219937,-0.05865 0.388705,-0.109851 0.506005,-0.153838 0.124631,-0.04399 0.256635,-0.128366 0.395929,-0.252998 0.146624,-0.124631 0.245483,-0.293389 0.296803,-0.505995 0.05865,-0.219938 0.08818,-0.48398 0.08818,-0.791893 0,-0.703801 -0.194098,-1.194917 -0.582655,-1.473505 -0.388557,-0.278588 -0.949717,-0.417956 -1.682843,-0.417956 z m 2.232072,4.332937 h 4.091267 c 0.373895,0 0.622851,0.05499 0.747482,0.164959 0.131964,0.109969 0.198253,0.264032 0.198253,0.461976 0,0.366559 -0.09943,0.578938 -0.297379,0.637592 -0.197944,0.05132 -0.425187,0.07692 -0.681782,0.07692 h -4.057841 z"
         sodipodi:nodetypes="cccscscscccscssccccsssccscscscc" /><path
         d="m 64.468024,93.982217 q 0,0.450873 0.296917,0.571838 0.307913,0.109969 0.846761,0.109969 l 1.055702,0.011 1.495579,-0.04399 q 0.615826,0 0.802773,-0.153957 0.186947,-0.153956 0.186947,-0.483863 0,-0.296917 -0.219938,-0.472867 -0.208941,-0.175951 -0.81377,-0.175951 h -0.362898 l -3.672964,-0.07698 q -1.033709,0 -1.462588,-0.516854 -0.417882,-0.527851 -0.417882,-1.605547 0,-0.912743 0.263926,-1.4186 0.274922,-0.505858 0.978724,-0.681808 0.714798,-0.186948 1.858476,-0.219938 1.154674,-0.03299 1.550562,-0.03299 l 1.56156,0.02199 q 0.934737,0 1.506575,0.153956 0.571839,0.14296 0.802774,0.538849 0.241932,0.395888 0.307913,0.714798 0.06598,0.31891 0.06598,0.879752 H 68.91077 q 0,-0.384892 -0.230935,-0.538848 -0.219938,-0.153957 -0.626823,-0.153957 l -1.077697,-0.011 -1.704519,0.05499 q -0.340904,0 -0.582836,0.131963 -0.230935,0.120966 -0.230935,0.417882 0,0.406885 0.274923,0.538848 0.285919,0.120966 0.769783,0.120966 h 0.230935 l 1.495578,0.02199 1.473585,0.011 q 1.4186,0 2.05642,0.450872 0.648817,0.439876 0.648817,1.781498 0,1.297634 -0.582836,1.781498 -0.571839,0.483863 -1.902463,0.483863 l -2.859194,0.07698 -1.495579,-0.03299 q -1.187665,0 -1.748507,-0.384891 -0.560842,-0.384892 -0.560842,-1.550563 v -0.439876 h 2.19938 z"
         style="-inkscape-font-specification:'Eurostile Extended Bold';fill:#eceff4;fill-opacity:1"
         id="path40655-8-1-0-3-1" /><path
         d="m 78.946145,88.868658 q 1.660531,0 2.298352,0.538848 0.648817,0.538849 0.648817,2.16639 0,1.539566 -0.505858,2.177386 -0.49486,0.626823 -2.089411,0.626823 h -0.571838 -3.486018 v 1.825485 h -2.23237 v -7.334932 z m 0.692804,2.782216 q 0,-0.615826 -0.263925,-0.802774 -0.263926,-0.197944 -0.92374,-0.197944 h -3.211095 v 1.946451 h 3.244086 q 0.63782,0 0.890749,-0.17595 0.263925,-0.186947 0.263925,-0.769783 z"
         id="path40657-4-5-5-5-7"
         style="fill:#eceff4;fill-opacity:1" /><path
         id="path40659-8-6-1-8-9"
         style="-inkscape-font-specification:'Eurostile Extended Bold';fill:#eceff4;fill-opacity:1"
         d="m 86.037069,88.868538 -4.090691,7.335087 h 2.485074 c 1.061374,-1.944783 2.162729,-4.0495 3.079257,-5.751301 l 1.572766,2.902989 h -1.991748 l -0.79474,1.517524 h 3.600247 l 0.692732,1.330788 h 2.463174 l -4.002515,-7.335087 z"
         sodipodi:nodetypes="cccccccccccc" /><path
         d="m 103.46255,93.729288 q 0,1.517572 -0.56084,2.02343 -0.54984,0.49486 -2.18838,0.49486 l -1.704522,0.03299 -1.385609,-0.02199 q -2.210377,0 -2.848197,-0.571839 -0.626824,-0.582836 -0.626824,-1.803491 l -0.06598,-1.539566 q 0,-1.803492 0.527851,-2.639256 0.527851,-0.846762 2.155392,-0.846762 l 2.089411,-0.05498 q 0.912743,0 1.506578,0.02199 0.59383,0.011 1.44059,0.09897 0.84676,0.08798 1.20966,0.747789 0.3629,0.648817 0.3629,1.781498 h -2.16639 q 0,-0.505858 -0.25293,-0.670811 -0.24193,-0.175951 -0.78078,-0.175951 l -0.626823,-0.011 H 98.93183 l -1.132681,0.011 q -1.011715,0 -1.24265,0.373895 -0.219938,0.373895 -0.219938,1.550563 0,1.209659 0.263926,1.572557 0.263925,0.362897 1.407603,0.362897 l 0.868755,0.02199 1.143675,-0.011 q 0.67081,0 0.95673,-0.186947 0.28592,-0.186947 0.28592,-0.879752 h 2.18839 z"
         style="-inkscape-font-specification:'Eurostile Extended Bold';fill:#eceff4;fill-opacity:1"
         id="path40661-1-5-1-5-1" /><path
         d="m 113.22301,88.868658 v 1.671529 h -5.94932 v 1.253647 h 5.55343 v 1.45159 h -5.55343 v 1.297635 h 5.94932 v 1.660531 h -8.18169 v -7.334932 z"
         style="-inkscape-font-specification:'Eurostile Extended Bold';fill:#eceff4;fill-opacity:1"
         id="path40663-6-0-0-0-0" /></g></g><text
     xml:space="preserve"
     style="font-style:normal;font-variant:normal;font-weight:bold;font-stretch:normal;font-size:5.39083px;font-family:'Eurostile Extended';-inkscape-font-specification:'Eurostile Extended Bold';text-align:center;letter-spacing:1.83135px;text-anchor:middle;display:inline;fill:#eceff4;fill-opacity:1;stroke:none;stroke-width:0.749198;stroke-dasharray:none;stroke-opacity:1"
     x="62.747772"
     y="16.514753"
     id="text38367-8-0-3-9-3"
     transform="scale(0.99024314,1.009853)"><tspan
       sodipodi:role="line"
       id="tspan38365-5-3-0-9-5"
       style="fill:#eceff4;fill-opacity:1;stroke-width:0.749198"
       x="63.663452"
       y="16.514753">SYSTEMS</tspan></text></svg>
